<?xml version="1.0" encoding="UTF-8"?>
<svg version="1.1" xmlns="http://www.w3.org/2000/svg" width="500" height="500">
<path d="M0 0 C92.4 0 184.8 0 280 0 C285.91455145 11.23764776 291.82367067 22.47196411 297.63305664 33.76342773 C298.69746794 35.83187043 299.76369954 37.89936784 300.83007812 39.96679688 C302.89506149 43.97361778 304.94946414 47.98577012 307 52 C307.3440387 52.67142029 307.68807739 53.34284058 308.0425415 54.03460693 C309.03929038 55.98310008 310.03028251 57.93440918 311.01953125 59.88671875 C311.59421143 61.01682373 312.1688916 62.14692871 312.76098633 63.3112793 C314 66 314 66 314 68 C221.6 68 129.2 68 34 68 C28.39 57.11 22.78 46.22 17 35 C15.22496094 31.57753906 13.44992188 28.15507812 11.62109375 24.62890625 C9.46289062 20.46679687 9.46289062 20.46679687 8.4543457 18.52124023 C7.74729104 17.15924755 7.03885587 15.797971 6.3293457 14.43725586 C5.25620926 12.37804477 4.18814276 10.31627671 3.12109375 8.25390625 C2.5170874 7.09189697 1.91308105 5.9298877 1.29077148 4.73266602 C0 2 0 2 0 0 Z " fill="#95A4B8" transform="translate(34,278)"/>
<path d="M0 0 C92.07 0 184.14 0 279 0 C285.6 12.87 292.2 25.74 299 39 C305.03657193 50.44889557 305.03657193 50.44889557 311.12402344 61.86987305 C312 64 312 64 312 68 C276.66964464 68.18304236 241.33938509 68.32404216 206.00865551 68.40852264 C201.83918428 68.4185285 197.66971398 68.42888305 193.50024414 68.43945312 C192.25512511 68.44260085 192.25512511 68.44260085 190.98485216 68.44581217 C177.53770987 68.48063914 164.09084072 68.54372451 150.64386056 68.61722237 C136.84979208 68.69198948 123.05586681 68.7364606 109.26160401 68.75270796 C100.74708277 68.76369458 92.23333344 68.79841396 83.71904977 68.86333174 C77.88338208 68.90556428 72.04811441 68.91841365 66.21230493 68.90801102 C62.84283645 68.90287724 59.47580852 68.91518172 56.10639191 68.9536438 C52.45491602 68.99329206 48.80677634 68.9839403 45.15522766 68.96203613 C44.08810824 68.98533886 43.02098882 69.0086416 41.92153245 69.03265047 C34.91653149 68.91860171 34.91653149 68.91860171 32.25737321 66.25343704 C30.95910086 64.21277671 29.94772795 62.22183417 29 60 C28.50153564 59.07276123 28.00307129 58.14552246 27.48950195 57.19018555 C26.87014771 55.92621948 26.87014771 55.92621948 26.23828125 54.63671875 C25.76414795 53.67685059 25.29001465 52.71698242 24.80151367 51.72802734 C24.0644519 50.22296631 24.0644519 50.22296631 23.3125 48.6875 C19.52760231 41.03332232 15.69093146 33.41732481 11.6875 25.875 C8.7184374 20.26598283 5.75364568 14.65610351 2.875 9 C2.03582031 7.3603125 2.03582031 7.3603125 1.1796875 5.6875 C0 3 0 3 0 0 Z " fill="#96A4B9" transform="translate(153,114)"/>
<path d="M0 0 C1.47583955 0.0001591 2.95168467 0.00585225 4.42749023 0.01586914 C5.20293686 0.01728409 5.97838348 0.01869904 6.77732849 0.02015686 C9.26361893 0.02577194 11.74982059 0.03832693 14.23608398 0.05102539 C15.91772331 0.05603845 17.59936405 0.06060169 19.28100586 0.06469727 C23.41189965 0.07574626 27.54272674 0.09302094 31.67358398 0.11352539 C37.29764837 10.19204785 42.89434349 20.26677046 47.94702148 30.64672852 C50.35100257 35.5673773 52.98152365 40.34494657 55.67358398 45.11352539 C60.5272395 42.69925585 65.37945258 40.28211728 70.23046875 37.86254883 C71.87364999 37.04343987 73.51719245 36.22505506 75.16113281 35.4074707 C85.75559906 30.13775147 96.26775545 24.74722328 106.67358398 19.11352539 C105.0829325 14.20016086 103.06698414 9.90818314 100.59936523 5.38305664 C99.67358398 3.11352539 99.67358398 3.11352539 100.67358398 0.11352539 C159.41358398 0.44352539 218.15358398 0.77352539 278.67358398 1.11352539 C287.58358398 18.43852539 287.58358398 18.43852539 296.67358398 36.11352539 C303.61577943 49.3963384 303.61577943 49.3963384 310.58227539 62.66625977 C311.67358398 65.11352539 311.67358398 65.11352539 311.67358398 68.11352539 C307.17188196 68.33068108 302.66992241 68.52751418 298.16650391 68.70556641 C296.634687 68.76899333 295.1030893 68.83796722 293.57177734 68.91259766 C291.3703772 69.01892136 289.16895911 69.10526366 286.96655273 69.18774414 C286.28207565 69.22510178 285.59759857 69.26245941 284.89237976 69.3009491 C280.1699278 69.45024878 280.1699278 69.45024878 277.86450195 67.88623047 C276.50961877 65.86945991 275.38862094 63.86290662 274.32592773 61.67602539 C273.89006348 60.78947266 273.45419922 59.90291992 273.00512695 58.98950195 C272.54509277 58.04042969 272.08505859 57.09135742 271.61108398 56.11352539 C270.63492656 54.12831005 269.65702549 52.14395124 268.67749023 50.16040039 C268.1813623 49.15557617 267.68523437 48.15075195 267.17407227 47.11547852 C263.74731248 40.2597287 260.13248557 33.50047324 256.53051758 26.7355957 C255.89674381 25.5359396 255.28035313 24.32706368 254.67358398 23.11352539 C251.1178389 23.70143685 248.25229195 24.64073422 245.04077148 26.26586914 C243.72109375 26.9290918 243.72109375 26.9290918 242.37475586 27.60571289 C241.44211914 28.08266602 240.50948242 28.55961914 239.54858398 29.05102539 C238.09935547 29.78385742 238.09935547 29.78385742 236.62084961 30.53149414 C228.58396042 34.61038624 220.60125595 38.79110099 212.64233398 43.01977539 C209.34441387 44.7694353 206.02138594 46.46081303 202.67358398 48.11352539 C204.10641144 53.41498696 206.67783603 57.82413774 209.43139648 62.52758789 C210.67358398 65.11352539 210.67358398 65.11352539 210.67358398 69.11352539 C187.23904225 69.13685779 163.80450225 69.15450625 140.36995125 69.16533756 C129.48955014 69.17049979 118.60915625 69.17754111 107.72875977 69.18896484 C98.2484041 69.1989139 88.76805365 69.20537935 79.2876929 69.20761389 C74.26522544 69.20892061 69.2427729 69.21200409 64.22031021 69.21925545 C59.49755428 69.22601915 54.77481949 69.22814163 50.05205917 69.22663307 C48.31456131 69.22690924 46.57706278 69.22891229 44.83956909 69.23273087 C42.47554938 69.23767356 40.11161052 69.23652152 37.74758911 69.23377991 C37.0530441 69.23669275 36.35849909 69.23960559 35.64290726 69.2426067 C30.90182641 69.2276466 30.90182641 69.2276466 28.67358398 68.11352539 C27.51391033 66.02798325 26.45615486 63.94940446 25.42358398 61.80102539 C24.70787644 60.34247691 23.99169182 58.88416247 23.27514648 57.42602539 C22.86941406 56.59586914 22.46368164 55.76571289 22.0456543 54.91040039 C19.62231174 49.97057613 17.16641754 45.04697517 14.70870972 40.12417603 C14.10145514 38.90773249 13.4946239 37.69107753 12.88821411 36.47421265 C8.58748961 27.84722677 4.20012917 19.27277152 -0.39428711 10.79785156 C-3.70378816 4.63349802 -3.70378816 4.63349802 -4.32641602 1.11352539 C-3.32641602 0.11352539 -3.32641602 0.11352539 0 0 Z " fill="#23D2EC" transform="translate(95.326416015625,195.886474609375)"/>
<path d="M0 0 C0.99 0.495 0.99 0.495 2 1 C2 2.32 2 3.64 2 5 C-21.43454174 5.0233324 -44.86908174 5.04098086 -68.30363274 5.05181217 C-79.18403384 5.0569744 -90.06442774 5.06401572 -100.94482422 5.07543945 C-110.42517989 5.08538851 -119.90553034 5.09185396 -129.38589108 5.09408849 C-134.40835854 5.09539522 -139.43081108 5.0984787 -144.45327377 5.10573006 C-149.17602971 5.11249376 -153.89876449 5.11461624 -158.62152481 5.11310768 C-160.35902267 5.11338385 -162.09652121 5.1153869 -163.83401489 5.11920547 C-166.1980346 5.12414817 -168.56197347 5.12299613 -170.92599487 5.12025452 C-171.96781239 5.12462378 -171.96781239 5.12462378 -173.03067672 5.12908131 C-177.77175758 5.11412121 -177.77175758 5.11412121 -180 4 C-179.67 3.34 -179.34 2.68 -179 2 C-90.395 2.495 -90.395 2.495 0 3 C0 2.01 0 1.02 0 0 Z " fill="#A4E3ED" transform="translate(304,260)"/>
<path d="M0 0 C92.4 0 184.8 0 280 0 C280 0.33 280 0.66 280 1 C279.41463585 1.00135653 278.82927169 1.00271306 278.22616923 1.00411069 C243.56329121 1.08469128 208.90045623 1.17561716 174.23764179 1.28005161 C170.07932652 1.29257108 165.921011 1.30500376 161.76269531 1.31738281 C160.52088181 1.3210818 160.52088181 1.3210818 159.25398116 1.32485552 C145.83406767 1.36462227 132.41414572 1.39735224 118.99420758 1.42749982 C105.2328814 1.45857026 91.47159126 1.49716062 77.71030557 1.54279006 C69.21300472 1.57072649 60.71573035 1.59273707 52.21839581 1.60726251 C46.39822419 1.61777242 40.57810373 1.63556036 34.75797059 1.65916704 C31.39574709 1.67258643 28.03365963 1.68162969 24.67140007 1.68421364 C21.03299889 1.68751217 17.39485048 1.70292381 13.75650024 1.7215271 C12.68453325 1.71959237 11.61256625 1.71765763 10.50811541 1.71566427 C9.53923274 1.72312976 8.57035007 1.73059525 7.57210732 1.73828697 C6.3110561 1.74170446 6.3110561 1.74170446 5.0245291 1.74519098 C2.77276084 1.81839158 2.77276084 1.81839158 1 4 C0.67 2.68 0.34 1.36 0 0 Z " fill="#B3B9C6" transform="translate(34,278)"/>
<path d="M0 0 C1.31171142 0.00829614 2.62342283 0.01659227 3.97488308 0.02513981 C4.70260982 0.02836894 5.43033657 0.03159806 6.18011564 0.03492504 C8.63693851 0.04706114 11.09365289 0.06642102 13.55042934 0.08570194 C15.30424669 0.09583828 17.05806663 0.10553265 18.81188869 0.11481571 C23.58857231 0.14136134 28.36519582 0.17412747 33.14183259 0.20796561 C38.12798063 0.24224489 43.11416098 0.27086557 48.10034084 0.30007267 C57.54931582 0.356288 66.99825035 0.41763198 76.44718117 0.48079401 C87.20151043 0.55243419 97.95587216 0.61839429 108.71024048 0.68386447 C130.83922254 0.81870869 152.9681538 0.96072761 175.0970602 1.10743046 C174.7670602 1.76743046 174.4370602 2.42743046 174.0970602 3.10743046 C116.6770602 3.10743046 59.2570602 3.10743046 0.0970602 3.10743046 C0.4270602 5.74743046 0.7570602 8.38743046 1.0970602 11.10743046 C-1.54759018 7.98193456 -2.74708695 5.01954779 -3.9029398 1.10743046 C-2.9029398 0.10743046 -2.9029398 0.10743046 0 0 Z " fill="#4FC3D2" transform="translate(198.90293979644775,195.89256954193115)"/>
<path d="M0 0 C1.47583955 0.0001591 2.95168467 0.00585225 4.42749023 0.01586914 C5.20293686 0.01728409 5.97838348 0.01869904 6.77732849 0.02015686 C9.26361893 0.02577194 11.74982059 0.03832693 14.23608398 0.05102539 C15.91772331 0.05603845 17.59936405 0.06060169 19.28100586 0.06469727 C23.41189965 0.07574626 27.54272674 0.09302094 31.67358398 0.11352539 C37.32196933 10.23563188 42.8989098 20.36781656 48.01733398 30.76977539 C50.41782443 35.64135895 52.95684923 40.41148447 55.67358398 45.11352539 C57.65358398 44.61852539 57.65358398 44.61852539 59.67358398 44.11352539 C59.34358398 45.10352539 59.01358398 46.09352539 58.67358398 47.11352539 C56.69358398 47.11352539 54.71358398 47.11352539 52.67358398 47.11352539 C52.4428418 46.54504883 52.21209961 45.97657227 51.97436523 45.39086914 C50.34627964 41.5362317 48.76765991 38.03934647 46.17358398 34.73852539 C43.3965629 31.09210257 42.22230705 27.19124082 40.77905273 22.87915039 C39.36638753 19.34499151 37.38648525 16.55218244 35.04077148 13.57446289 C33.67358398 11.11352539 33.67358398 11.11352539 31.67358398 2.11352539 C20.45358398 2.11352539 9.23358398 2.11352539 -2.32641602 2.11352539 C-2.65641602 3.10352539 -2.98641602 4.09352539 -3.32641602 5.11352539 C-3.88891602 3.17602539 -3.88891602 3.17602539 -4.32641602 1.11352539 C-3.32641602 0.11352539 -3.32641602 0.11352539 0 0 Z " fill="#62CEDA" transform="translate(95.326416015625,195.886474609375)"/>
<path d="M0 0 C0.99 0.33 1.98 0.66 3 1 C4.1875 3.5625 4.1875 3.5625 5 6 C4.34 6 3.68 6 3 6 C1.61767557 7.62626404 0.28062485 9.2925002 -1 11 C-4.68268739 10.50233954 -6.65028767 9.93714041 -9 7 C-9.33 6.34 -9.66 5.68 -10 5 C-5.56923077 1.92307692 -5.56923077 1.92307692 -2.6875 2.3125 C-1.8521875 2.6528125 -1.8521875 2.6528125 -1 3 C-0.67 2.01 -0.34 1.02 0 0 Z " fill="#34BCCE" transform="translate(328,210)"/>
<path d="M0 0 C0 2.31 0 4.62 0 7 C-0.66 7 -1.32 7 -2 7 C-2.33 7.66 -2.66 8.32 -3 9 C-4.98 8.34 -6.96 7.68 -9 7 C-9 6.34 -9 5.68 -9 5 C-10.98 5.99 -10.98 5.99 -13 7 C-11.78836152 3.36508457 -10.89228938 3.04753785 -7.625 1.25 C-6.83351562 0.80140625 -6.04203125 0.3528125 -5.2265625 -0.109375 C-3 -1 -3 -1 0 0 Z " fill="#36CCE2" transform="translate(191,223)"/>
<path d="M0 0 C-0.1875 1.875 -0.1875 1.875 -1 4 C-3.89111788 5.52164099 -5.71823412 6 -9 6 C-9 6.66 -9 7.32 -9 8 C-9.99 8 -10.98 8 -12 8 C-12 8.66 -12 9.32 -12 10 C-15.3 10.33 -18.6 10.66 -22 11 C-19.27083948 8.95312961 -17.13664653 7.44074962 -14.1796875 5.95703125 C-13.12974609 5.43012695 -13.12974609 5.43012695 -12.05859375 4.89257812 C-11.33800781 4.53615234 -10.61742187 4.17972656 -9.875 3.8125 C-9.14667969 3.44447266 -8.41835937 3.07644531 -7.66796875 2.69726562 C-2.25342069 0 -2.25342069 0 0 0 Z " fill="#4EC8DA" transform="translate(177,229)"/>
<path d="M0 0 C0.99 0.33 1.98 0.66 3 1 C3 2.32 3 3.64 3 5 C3.66 5 4.32 5 5 5 C5 6.65 5 8.3 5 10 C4.01 10 3.02 10 2 10 C2 10.66 2 11.32 2 12 C-0.31 12.33 -2.62 12.66 -5 13 C-5 13.66 -5 14.32 -5 15 C-6.65 15 -8.3 15 -10 15 C-6.35140239 11.95950199 -2.2555467 10.03481238 2 8 C1.34 5.36 0.68 2.72 0 0 Z " fill="#65D7E6" transform="translate(200,207)"/>
<path d="M0 0 C2.53101025 2.97118595 3.34820749 5.18416621 4 9 C-0.12426536 9.22512171 -4.24933849 9.42725588 -8.375 9.625 C-9.550625 9.68945312 -10.72625 9.75390625 -11.9375 9.8203125 C-13.05898438 9.871875 -14.18046875 9.9234375 -15.3359375 9.9765625 C-16.37282715 10.02893066 -17.4097168 10.08129883 -18.47802734 10.13525391 C-21 10 -21 10 -23 8 C-15.08 8 -7.16 8 1 8 C0.67 5.36 0.34 2.72 0 0 Z " fill="#60D0E3" transform="translate(403,255)"/>
<path d="M0 0 C2.02408755 0.09002398 4.04544287 0.24641038 6.0625 0.4375 C7.71958984 0.59025391 7.71958984 0.59025391 9.41015625 0.74609375 C10.26480469 0.82988281 11.11945313 0.91367188 12 1 C10 3 10 3 6.375 3.125 C5.26125 3.08375 4.1475 3.0425 3 3 C3.33 5.64 3.66 8.28 4 11 C1.35534962 7.8745041 0.15585285 4.91211733 -1 1 C-0.67 0.67 -0.34 0.34 0 0 Z " fill="#4DD4E5" transform="translate(196,196)"/>
<path d="M0 0 C2.96175123 0.61277612 4.38058783 1.25372522 7 3 C5.06891037 4.03290841 3.129882 5.05098672 1.1875 6.0625 C0.10855469 6.63097656 -0.97039062 7.19945312 -2.08203125 7.78515625 C-5 9 -5 9 -8 8 C-7.01 7.67 -6.02 7.34 -5 7 C-5 6.34 -5 5.68 -5 5 C-3.33333333 4 -1.66666667 3 0 2 C0 1.34 0 0.68 0 0 Z " fill="#58D8EA" transform="translate(340,216)"/>
<path d="M0 0 C1.43367789 0.04233077 2.86719443 0.0903537 4.30053711 0.14282227 C5.43041298 0.17823875 5.43041298 0.17823875 6.58311462 0.21437073 C8.99822015 0.2911835 11.41301906 0.37513123 13.82788086 0.45922852 C15.4613292 0.51243161 17.09479268 0.56517211 18.72827148 0.61743164 C22.74083687 0.74682227 26.7531413 0.88261399 30.76538086 1.02172852 C30.76538086 1.35172852 30.76538086 1.68172852 30.76538086 2.02172852 C19.87538086 2.02172852 8.98538086 2.02172852 -2.23461914 2.02172852 C-2.56461914 3.01172852 -2.89461914 4.00172852 -3.23461914 5.02172852 C-3.79711914 3.08422852 -3.79711914 3.08422852 -4.23461914 1.02172852 C-3.23461914 0.02172852 -3.23461914 0.02172852 0 0 Z " fill="#5EC5D4" transform="translate(95.234619140625,195.978271484375)"/>
<path d="M0 0 C0.33 1.32 0.66 2.64 1 4 C0.278125 3.79375 -0.44375 3.5875 -1.1875 3.375 C-4.44641585 2.94047789 -6.08304504 3.58319331 -9 5 C-7.68 6.32 -6.36 7.64 -5 9 C-5.99 9.33 -6.98 9.66 -8 10 C-8.99 9.34 -9.98 8.68 -11 8 C-10.67 6.35 -10.34 4.7 -10 3 C-5.05 1.515 -5.05 1.515 0 0 Z " fill="#34C3D8" transform="translate(327,210)"/>
<path d="M0 0 C0.99 0.33 1.98 0.66 3 1 C4.1875 3.5625 4.1875 3.5625 5 6 C2.69 6.66 0.38 7.32 -2 8 C-4 5 -4 5 -4 2 C-3.01 2.33 -2.02 2.66 -1 3 C-0.67 2.01 -0.34 1.02 0 0 Z " fill="#0A4C59" transform="translate(328,210)"/>
<path d="M0 0 C1.65 0 3.3 0 5 0 C1.94746898 2.40875078 -1.21351847 4.32543798 -4.625 6.1875 C-5.58664062 6.71730469 -6.54828125 7.24710938 -7.5390625 7.79296875 C-10 9 -10 9 -12 9 C-12 8.01 -12 7.02 -12 6 C-10.68 6 -9.36 6 -8 6 C-8 5.34 -8 4.68 -8 4 C-6.68 4 -5.36 4 -4 4 C-4 3.34 -4 2.68 -4 2 C-2.68 2 -1.36 2 0 2 C0 1.34 0 0.68 0 0 Z " fill="#6BD9E7" transform="translate(328,225)"/>
<path d="M0 0 C2.375 0.5 2.375 0.5 5 2 C6.18789923 4.58381767 6.89916779 7.152973 7 10 C6.34 10.66 5.68 11.32 5 12 C4.16180842 10.37750059 3.3295884 8.75191503 2.5 7.125 C2.0359375 6.22007812 1.571875 5.31515625 1.09375 4.3828125 C0 2 0 2 0 0 Z " fill="#AFB9C6" transform="translate(57,323)"/>
<path d="M0 0 C2.475 0.495 2.475 0.495 5 1 C5.97608217 3.92824652 6.08226668 5.95613276 6 9 C3 8 3 8 1.3125 5.0625 C0 2 0 2 0 0 Z " fill="#55D7E7" transform="translate(370,256)"/>
<path d="M0 0 C-1.59766103 0.86627399 -3.20339944 1.71766465 -4.8125 2.5625 C-5.70582031 3.03816406 -6.59914063 3.51382813 -7.51953125 4.00390625 C-10 5 -10 5 -13 4 C-12.01 3.67 -11.02 3.34 -10 3 C-9.67 2.01 -9.34 1.02 -9 0 C-5.5657338 -0.85856655 -3.38317487 -0.97591583 0 0 Z " fill="#68D9E9" transform="translate(314,236)"/>
<path d="M0 0 C0.66 0.33 1.32 0.66 2 1 C2 2.32 2 3.64 2 5 C-4.27 4.67 -10.54 4.34 -17 4 C-17 3.67 -17 3.34 -17 3 C-11.39 3 -5.78 3 0 3 C0 2.01 0 1.02 0 0 Z " fill="#61D1DF" transform="translate(304,260)"/>
<path d="M0 0 C2.98205122 2.55604391 4.58490064 5.35053322 6 9 C5.1875 11.375 5.1875 11.375 4 13 C4 11.68 4 10.36 4 9 C3.34 9 2.68 9 2 9 C0.50178941 5.62902617 0 3.79557881 0 0 Z " fill="#74DDE8" transform="translate(396,242)"/>
<path d="M0 0 C0 1.32 0 2.64 0 4 C-3.3 4.33 -6.6 4.66 -10 5 C-3.33333333 0 -3.33333333 0 0 0 Z " fill="#5DC8D5" transform="translate(165,235)"/>
<path d="M0 0 C0.99 0 1.98 0 3 0 C6.125 6.625 6.125 6.625 5 10 C4.566875 9.030625 4.13375 8.06125 3.6875 7.0625 C2.2985139 3.72268235 2.2985139 3.72268235 -1 3 C-0.67 2.01 -0.34 1.02 0 0 Z " fill="#6CDCEA" transform="translate(348,215)"/>
<path d="M0 0 C0.99 0 1.98 0 3 0 C3 1.32 3 2.64 3 4 C3.66 4 4.32 4 5 4 C5.66 5.98 6.32 7.96 7 10 C6.01 10.495 6.01 10.495 5 11 C4.16151196 9.54462432 3.32936066 8.08559627 2.5 6.625 C1.80390625 5.40683594 1.80390625 5.40683594 1.09375 4.1640625 C0 2 0 2 0 0 Z " fill="#65D8E8" transform="translate(98,211)"/>
<path d="M0 0 C0.66 0.33 1.32 0.66 2 1 C2.40729228 3.32156597 2.74438677 5.6568787 3 8 C2.01 8.495 2.01 8.495 1 9 C-2 3.25 -2 3.25 -2 1 C-1.34 0.67 -0.68 0.34 0 0 Z " fill="#AAB3C2" transform="translate(179,161)"/>
<path d="M0 0 C2.52394612 3.12488567 4.39701907 6.31314387 6 10 C5.67 10.66 5.34 11.32 5 12 C4.34 11.67 3.68 11.34 3 11 C3 9.68 3 8.36 3 7 C2.34 7 1.68 7 1 7 C1 6.34 1 5.68 1 5 C0.34 4.67 -0.32 4.34 -1 4 C-0.67 2.68 -0.34 1.36 0 0 Z " fill="#BAC3CE" transform="translate(438,127)"/>
<path d="M0 0 C0.86625 0.5259375 0.86625 0.5259375 1.75 1.0625 C4.35801776 2.14917407 5.39417629 1.93065133 8 1 C7.67 1.99 7.34 2.98 7 4 C5.02 4 3.04 4 1 4 C0.67 2.68 0.34 1.36 0 0 Z " fill="#57C7D3" transform="translate(147,239)"/>
<path d="M0 0 C3 1 3 1 4.1875 2.75 C5.10819096 5.29960574 5.14948718 7.30923081 5 10 C2.35534962 6.8745041 1.15585285 3.91211733 0 0 Z " fill="#61D9E7" transform="translate(108,230)"/>
<path d="M0 0 C3 1 3 1 4.1875 2.75 C5.10819096 5.29960574 5.14948718 7.30923081 5 10 C2.35534962 6.8745041 1.15585285 3.91211733 0 0 Z " fill="#73DDEE" transform="translate(354,225)"/>
<path d="M0 0 C0 0.99 0 1.98 0 3 C-1.65 3 -3.3 3 -5 3 C-5 3.66 -5 4.32 -5 5 C-6.65 5 -8.3 5 -10 5 C-3.63636364 0 -3.63636364 0 0 0 Z " fill="#6ACFD5" transform="translate(200,217)"/>
<path d="M0 0 C1.98 0 3.96 0 6 0 C6 1.65 6 3.3 6 5 C3 5 3 5 1.3125 3.625 C0 2 0 2 0 0 Z " fill="#2AC0D3" transform="translate(328,208)"/>
<path d="M0 0 C2.02408755 0.09002398 4.04544287 0.24641038 6.0625 0.4375 C7.71958984 0.59025391 7.71958984 0.59025391 9.41015625 0.74609375 C10.26480469 0.82988281 11.11945313 0.91367188 12 1 C12 1.33 12 1.66 12 2 C10.95199219 2.07347656 10.95199219 2.07347656 9.8828125 2.1484375 C8.97273437 2.22320312 8.06265625 2.29796875 7.125 2.375 C6.22007812 2.44460937 5.31515625 2.51421875 4.3828125 2.5859375 C1.82058097 2.79568132 1.82058097 2.79568132 0 5 C-0.5625 3.0625 -0.5625 3.0625 -1 1 C-0.67 0.67 -0.34 0.34 0 0 Z " fill="#73CEDB" transform="translate(196,196)"/>
<path d="M0 0 C2.97069541 2.54631035 4.4775751 5.42230149 6 9 C5.67 9.66 5.34 10.32 5 11 C1.19015156 8.22920113 0.93159248 4.37131855 0 0 Z " fill="#6ED0DC" transform="translate(126,196)"/>
<path d="M0 0 C2.32472205 2.85306797 3.7508258 5.54074837 5 9 C4.34 9 3.68 9 3 9 C3 8.34 3 7.68 3 7 C2.01 6.67 1.02 6.34 0 6 C0 4.02 0 2.04 0 0 Z " fill="#ABB4C0" transform="translate(322,295)"/>
<path d="M0 0 C0.33 2.31 0.66 4.62 1 7 C-2 6 -2 6 -4 4 C-4.33 3.34 -4.66 2.68 -5 2 C-2 0 -2 0 0 0 Z " fill="#045568" transform="translate(323,213)"/>
<path d="M0 0 C1.32 0.33 2.64 0.66 4 1 C4.33 2.65 4.66 4.3 5 6 C4.01 6.495 4.01 6.495 3 7 C0 2.25 0 2.25 0 0 Z " fill="#64D9E8" transform="translate(359,235)"/>
</svg>
